<?xml version="1.0" encoding="UTF-8" standalone="no"?>
<!-- Created with Inkscape (http://www.inkscape.org/) -->

<svg
   xmlns:dc="http://purl.org/dc/elements/1.1/"
   xmlns:cc="http://creativecommons.org/ns#"
   xmlns:rdf="http://www.w3.org/1999/02/22-rdf-syntax-ns#"
   xmlns:svg="http://www.w3.org/2000/svg"
   xmlns="http://www.w3.org/2000/svg"
   xmlns:sodipodi="http://sodipodi.sourceforge.net/DTD/sodipodi-0.dtd"
   xmlns:inkscape="http://www.inkscape.org/namespaces/inkscape"
   width="32"
   height="32"
   viewBox="0 0 8.4666665 8.4666669"
   version="1.1"
   id="svg834"
   inkscape:version="0.92.3 (2405546, 2018-03-11)"
   sodipodi:docname="cut.svg">
  <defs
     id="defs828" />
  <sodipodi:namedview
     id="base"
     pagecolor="#ffffff"
     bordercolor="#666666"
     borderopacity="1.0"
     inkscape:pageopacity="0.0"
     inkscape:pageshadow="2"
     inkscape:zoom="13.346641"
     inkscape:cx="-1.7290593"
     inkscape:cy="26.385168"
     inkscape:document-units="mm"
     inkscape:current-layer="layer1"
     showgrid="false"
     units="px"
     inkscape:window-width="2560"
     inkscape:window-height="1377"
     inkscape:window-x="1912"
     inkscape:window-y="-8"
     inkscape:window-maximized="1" />
  <metadata
     id="metadata831">
    <rdf:RDF>
      <cc:Work
         rdf:about="">
        <dc:format>image/svg+xml</dc:format>
        <dc:type
           rdf:resource="http://purl.org/dc/dcmitype/StillImage" />
        <dc:title />
      </cc:Work>
    </rdf:RDF>
  </metadata>
  <g
     inkscape:label="Layer 1"
     inkscape:groupmode="layer"
     id="layer1"
     transform="translate(0,-288.53332)">
    <g
       id="g837">
      <path
         id="XMLID_3_"
         class="st0"
         d="m 4.2572845,288.66498 c 2.2344707,0 4.0569113,1.82244 4.0569113,4.05691 0,2.23447 -1.8224406,4.05691 -4.0569113,4.05691 -2.2344707,0 -4.05691139,-1.82244 -4.05691139,-4.05691 0,-2.23447 1.82244069,-4.05691 4.05691139,-4.05691"
         inkscape:connector-curvature="0"
         style="fill:#5cc762;fill-opacity:1;stroke-width:0.01584731" />
      <path
         id="XMLID_7_"
         class="st1"
         d="m 5.780211,293.73295 c -0.2741585,0 -0.5118682,0.22503 -0.5118682,0.51187 0,0.0507 0,0.0872 0.012678,0.12519 0.061805,-0.21235 0.2503875,-0.37399 0.4865124,-0.37399 0.2361249,0 0.4373858,0.16164 0.4865124,0.37399 0.012678,-0.038 0.012678,-0.0872 0.012678,-0.12519 0.025356,-0.27416 -0.212354,-0.51187 -0.4865124,-0.51187 m -1.3850549,-0.22503 c -0.050711,0.038 -0.099838,0.0872 -0.1505495,0.12519 0.2614806,0.22503 0.4500636,0.43739 0.4500636,0.64974 0,0.23771 0.061805,0.45006 0.1251938,0.59903 0.1505494,0.374 0.5245459,0.64974 0.936576,0.64974 0.5609948,0 1.0110584,-0.46116 1.0110584,-1.01106 0,-0.038 0,-0.0872 -0.012678,-0.12519 -0.061805,0.49919 -0.4865124,0.88586 -1.0110584,0.88586 -0.4247079,0 -0.7860265,-0.26148 -0.936576,-0.64974 -0.061805,-0.15055 -0.1251937,-0.35022 -0.1251937,-0.59903 0.025356,-0.17432 -0.099838,-0.33754 -0.2868363,-0.52454 M 2.22249,290.43829 c 0,1.37238 0.7860265,2.17267 1.4848929,2.74634 0.050711,-0.038 0.061805,-0.0745 0.061805,-0.0745 l 0.061805,-0.0745 c -0.6592481,-0.53881 -1.495986,-1.2868 -1.6085019,-2.59738 v 0"
         inkscape:connector-curvature="0"
         style="fill:#50a656;fill-opacity:1;stroke-width:0.01584731" />
      <path
         id="XMLID_10_"
         class="st2"
         d="m 5.780211,293.23376 c -0.7860266,0 -1.0364141,-0.36132 -1.0364141,-0.36132 l -2.521307,-2.68453 c 0,2.42147 2.4721803,3.05853 2.4721803,3.84455 0,0.23771 0.061805,0.45007 0.1251938,0.59903 0.1505494,0.374 0.5245459,0.64974 0.936576,0.64974 0.5609948,0 1.0110584,-0.46115 1.0110584,-1.01106 0.011093,-0.57525 -0.4262927,-1.03641 -0.9872874,-1.03641 m 0,1.52293 c -0.2741585,0 -0.5118682,-0.22504 -0.5118682,-0.51187 0,-0.27416 0.2250318,-0.51187 0.5118682,-0.51187 0.2741584,0 0.5118681,0.22503 0.5118681,0.51187 0,0.27416 -0.2377097,0.51187 -0.5118681,0.51187"
         inkscape:connector-curvature="0"
         style="fill:#e0e0d1;stroke-width:0.01584731" />
      <path
         id="XMLID_14_"
         class="st1"
         d="m 2.734358,295.00549 c -0.2741585,0 -0.5118681,-0.22503 -0.5118681,-0.51187 0,-0.27416 0.2250318,-0.51187 0.5118681,-0.51187 0.2741584,0 0.5118681,0.22503 0.5118681,0.51187 0,0.28842 -0.2377097,0.51187 -0.5118681,0.51187 m 0.9730248,-1.82244 c -0.1125159,0.11251 -0.41203,0.29951 -0.9730248,0.29951 -0.5609948,0 -1.0110584,0.46116 -1.0110584,1.01106 0,0.561 0.4611567,1.01106 1.0110584,1.01106 0.4373857,0 0.7987044,-0.26148 0.936576,-0.64974 0.074482,-0.15055 0.1251937,-0.35023 0.1251937,-0.59903 0,-0.21235 0.1869983,-0.41203 0.4500637,-0.63706 -0.1505495,-0.12361 -0.3391325,-0.27257 -0.5388086,-0.4358 m 2.5846963,-2.74476 -1.9096009,2.03321 0.3613187,0.38668 c 0,0 0.061804,0.0872 0.2250318,0.187 0.6370619,-0.561 1.3232504,-1.33435 1.3232504,-2.60689"
         inkscape:connector-curvature="0"
         style="fill:#50a656;fill-opacity:1;stroke-width:0.01584731" />
      <path
         id="XMLID_15_"
         class="st3"
         d="m 3.8452544,293.04676 -0.061805,0.0745 c 0,0 -0.025356,0.0254 -0.061805,0.0745 0.1996761,0.16164 0.3866744,0.31219 0.5372238,0.45006 0.050711,-0.038 0.099838,-0.0745 0.1505494,-0.12519 -0.164812,-0.14897 -0.3518102,-0.29952 -0.5641642,-0.47384"
         inkscape:connector-curvature="0"
         style="fill:#468c4b;fill-opacity:1;stroke-width:0.01584731" />
      <path
         id="XMLID_16_"
         class="st4"
         d="m 4.3824782,292.4715 -0.5372238,0.57526 c 0.212354,0.17432 0.3993522,0.32487 0.5499017,0.47384 0.1743204,-0.13788 0.3739965,-0.29952 0.5609947,-0.46116 -0.1616425,-0.0872 -0.2250318,-0.187 -0.2250318,-0.187 L 4.3824782,292.4715"
         inkscape:connector-curvature="0"
         style="fill:#bab9ae;stroke-width:0.01584731" />
      <path
         id="XMLID_19_"
         class="st2"
         d="m 3.7707721,292.85976 c 0,0 -0.2503875,0.36132 -1.0364141,0.36132 -0.5609948,0 -1.0110584,0.46116 -1.0110584,1.01106 0,0.56099 0.4611567,1.01106 1.0110584,1.01106 0.4373857,0 0.7987044,-0.26148 0.936576,-0.64974 0.074482,-0.15055 0.1251937,-0.35023 0.1251937,-0.59903 0.012678,-0.77335 2.4848583,-1.41041 2.4848583,-3.83188 z m -1.0364141,1.89693 c -0.2741585,0 -0.5118681,-0.22504 -0.5118681,-0.51187 0,-0.27416 0.2250318,-0.51187 0.5118681,-0.51187 0.2741584,0 0.5118681,0.22503 0.5118681,0.51187 0,0.27416 -0.2377097,0.51187 -0.5118681,0.51187 z"
         inkscape:connector-curvature="0"
         style="fill:#e0e0d1;stroke-width:0.01584731" />
      <circle
         id="XMLID_20_"
         class="st5"
         cx="4.2572846"
         cy="292.84708"
         r="0.18699826"
         style="fill:#4f5d73;stroke-width:0.01584731" />
    </g>
  </g>
</svg>
