<?xml version="1.0" encoding="UTF-8" standalone="no"?>
<!-- Created with Inkscape (http://www.inkscape.org/) -->

<svg
   xmlns:dc="http://purl.org/dc/elements/1.1/"
   xmlns:cc="http://creativecommons.org/ns#"
   xmlns:rdf="http://www.w3.org/1999/02/22-rdf-syntax-ns#"
   xmlns:svg="http://www.w3.org/2000/svg"
   xmlns="http://www.w3.org/2000/svg"
   xmlns:sodipodi="http://sodipodi.sourceforge.net/DTD/sodipodi-0.dtd"
   xmlns:inkscape="http://www.inkscape.org/namespaces/inkscape"
   width="32"
   height="32"
   viewBox="0 0 8.4666665 8.4666669"
   version="1.1"
   id="svg834"
   inkscape:version="0.92.3 (2405546, 2018-03-11)"
   sodipodi:docname="cut.svg">
  <defs
     id="defs828" />
  <sodipodi:namedview
     id="base"
     pagecolor="#ffffff"
     bordercolor="#666666"
     borderopacity="1.0"
     inkscape:pageopacity="0.0"
     inkscape:pageshadow="2"
     inkscape:zoom="13.346641"
     inkscape:cx="11.382854"
     inkscape:cy="26.385168"
     inkscape:document-units="mm"
     inkscape:current-layer="layer1"
     showgrid="false"
     units="px"
     inkscape:window-width="2560"
     inkscape:window-height="1377"
     inkscape:window-x="1912"
     inkscape:window-y="-8"
     inkscape:window-maximized="1" />
  <metadata
     id="metadata831">
    <rdf:RDF>
      <cc:Work
         rdf:about="">
        <dc:format>image/svg+xml</dc:format>
        <dc:type
           rdf:resource="http://purl.org/dc/dcmitype/StillImage" />
        <dc:title></dc:title>
      </cc:Work>
    </rdf:RDF>
  </metadata>
  <g
     inkscape:label="Layer 1"
     inkscape:groupmode="layer"
     id="layer1"
     transform="translate(0,-288.53332)">
    <g
       id="XMLID_1_"
       transform="matrix(0.01584731,0,0,0.01584731,0.20037311,288.66498)">
      <path
         id="XMLID_3_"
         class="st0"
         d="M 256,0 C 397,0 512,115 512,256 512,397 397,512 256,512 115,512 0,397 0,256 0,115 115,0 256,0"
         inkscape:connector-curvature="0"
         style="fill:#c75c5c" />
      <path
         id="XMLID_7_"
         class="st1"
         d="m 352.1,319.8 c -17.3,0 -32.3,14.2 -32.3,32.3 0,3.2 0,5.5 0.8,7.9 3.9,-13.4 15.8,-23.6 30.7,-23.6 14.9,0 27.6,10.2 30.7,23.6 0.8,-2.4 0.8,-5.5 0.8,-7.9 1.6,-17.3 -13.4,-32.3 -30.7,-32.3 m -87.4,-14.2 c -3.2,2.4 -6.3,5.5 -9.5,7.9 16.5,14.2 28.4,27.6 28.4,41 0,15 3.9,28.4 7.9,37.8 9.5,23.6 33.1,41 59.1,41 35.4,0 63.8,-29.1 63.8,-63.8 0,-2.4 0,-5.5 -0.8,-7.9 -3.9,31.5 -30.7,55.9 -63.8,55.9 -26.8,0 -49.6,-16.5 -59.1,-41 -3.9,-9.5 -7.9,-22.1 -7.9,-37.8 1.6,-11 -6.3,-21.3 -18.1,-33.1 M 127.6,111.9 c 0,86.6 49.6,137.1 93.7,173.3 3.2,-2.4 3.9,-4.7 3.9,-4.7 l 3.9,-4.7 c -41.6,-34 -94.4,-81.2 -101.5,-163.9 v 0"
         inkscape:connector-curvature="0"
         style="fill:#a65050" />
      <path
         id="XMLID_10_"
         class="st2"
         d="m 352.1,288.3 c -49.6,0 -65.4,-22.8 -65.4,-22.8 L 127.6,96.1 c 0,152.8 156,193 156,242.6 0,15 3.9,28.4 7.9,37.8 9.5,23.6 33.1,41 59.1,41 35.4,0 63.8,-29.1 63.8,-63.8 0.7,-36.3 -26.9,-65.4 -62.3,-65.4 m 0,96.1 c -17.3,0 -32.3,-14.2 -32.3,-32.3 0,-17.3 14.2,-32.3 32.3,-32.3 17.3,0 32.3,14.2 32.3,32.3 0,17.3 -15,32.3 -32.3,32.3"
         inkscape:connector-curvature="0"
         style="fill:#e0e0d1" />
      <path
         id="XMLID_14_"
         class="st1"
         d="m 159.9,400.1 c -17.3,0 -32.3,-14.2 -32.3,-32.3 0,-17.3 14.2,-32.3 32.3,-32.3 17.3,0 32.3,14.2 32.3,32.3 0,18.2 -15,32.3 -32.3,32.3 m 61.4,-115 c -7.1,7.1 -26,18.9 -61.4,18.9 -35.4,0 -63.8,29.1 -63.8,63.8 0,35.4 29.1,63.8 63.8,63.8 27.6,0 50.4,-16.5 59.1,-41 4.7,-9.5 7.9,-22.1 7.9,-37.8 0,-13.4 11.8,-26 28.4,-40.2 -9.5,-7.8 -21.4,-17.2 -34,-27.5 m 163.1,-173.2 -120.5,128.3 22.8,24.4 c 0,0 3.9,5.5 14.2,11.8 40.2,-35.4 83.5,-84.2 83.5,-164.5"
         inkscape:connector-curvature="0"
         style="fill:#a65050" />
      <path
         id="XMLID_15_"
         class="st3"
         d="m 230,276.5 -3.9,4.7 c 0,0 -1.6,1.6 -3.9,4.7 12.6,10.2 24.4,19.7 33.9,28.4 3.2,-2.4 6.3,-4.7 9.5,-7.9 C 255.2,297 243.4,287.5 230,276.5"
         inkscape:connector-curvature="0"
         style="fill:#8c4646" />
      <path
         id="XMLID_16_"
         class="st4"
         d="M 263.9,240.2 230,276.5 c 13.4,11 25.2,20.5 34.7,29.9 11,-8.7 23.6,-18.9 35.4,-29.1 -10.2,-5.5 -14.2,-11.8 -14.2,-11.8 l -22,-25.3"
         inkscape:connector-curvature="0"
         style="fill:#bab9ae" />
      <path
         id="XMLID_19_"
         class="st2"
         d="m 225.3,264.7 c 0,0 -15.8,22.8 -65.4,22.8 -35.4,0 -63.8,29.1 -63.8,63.8 0,35.4 29.1,63.8 63.8,63.8 27.6,0 50.4,-16.5 59.1,-41 4.7,-9.5 7.9,-22.1 7.9,-37.8 0.8,-48.8 156.8,-89 156.8,-241.8 z m -65.4,119.7 c -17.3,0 -32.3,-14.2 -32.3,-32.3 0,-17.3 14.2,-32.3 32.3,-32.3 17.3,0 32.3,14.2 32.3,32.3 0,17.3 -15,32.3 -32.3,32.3 z"
         inkscape:connector-curvature="0"
         style="fill:#e0e0d1" />
      <circle
         id="XMLID_20_"
         class="st5"
         cx="256"
         cy="263.89999"
         r="11.8"
         style="fill:#4f5d73" />
    </g>
  </g>
</svg>
