<?xml version="1.0" encoding="UTF-8" standalone="no"?>
<!-- Created with Inkscape (http://www.inkscape.org/) -->

<svg
   xmlns:dc="http://purl.org/dc/elements/1.1/"
   xmlns:cc="http://creativecommons.org/ns#"
   xmlns:rdf="http://www.w3.org/1999/02/22-rdf-syntax-ns#"
   xmlns:svg="http://www.w3.org/2000/svg"
   xmlns="http://www.w3.org/2000/svg"
   xmlns:sodipodi="http://sodipodi.sourceforge.net/DTD/sodipodi-0.dtd"
   xmlns:inkscape="http://www.inkscape.org/namespaces/inkscape"
   width="32"
   height="32"
   viewBox="0 0 8.4666665 8.4666669"
   version="1.1"
   id="svg834"
   inkscape:version="0.92.3 (2405546, 2018-03-11)"
   sodipodi:docname="remove.svg">
  <defs
     id="defs828" />
  <sodipodi:namedview
     id="base"
     pagecolor="#ffffff"
     bordercolor="#666666"
     borderopacity="1.0"
     inkscape:pageopacity="0.0"
     inkscape:pageshadow="2"
     inkscape:zoom="37.75"
     inkscape:cx="16"
     inkscape:cy="16"
     inkscape:document-units="mm"
     inkscape:current-layer="layer1"
     showgrid="false"
     units="px"
     inkscape:window-width="2560"
     inkscape:window-height="1377"
     inkscape:window-x="1912"
     inkscape:window-y="-8"
     inkscape:window-maximized="1" />
  <metadata
     id="metadata831">
    <rdf:RDF>
      <cc:Work
         rdf:about="">
        <dc:format>image/svg+xml</dc:format>
        <dc:type
           rdf:resource="http://purl.org/dc/dcmitype/StillImage" />
        <dc:title></dc:title>
      </cc:Work>
    </rdf:RDF>
  </metadata>
  <g
     inkscape:label="Layer 1"
     inkscape:groupmode="layer"
     id="layer1"
     transform="translate(0,-288.53332)">
    <path
       style="fill:#c75c5c;stroke-width:0.01584731"
       inkscape:connector-curvature="0"
       d="m 4.2572845,288.66498 c 2.2344707,0 4.0569113,1.82244 4.0569113,4.05691 0,2.23447 -1.8224406,4.05691 -4.0569113,4.05691 -2.2344707,0 -4.05691139,-1.82244 -4.05691139,-4.05691 0,-2.23447 1.82244069,-4.05691 4.05691139,-4.05691"
       class="st0"
       id="XMLID_3_" />
    <polygon
       transform="matrix(0.01796013,0,0,0.01796013,-0.2794867,288.15188)"
       style="fill:#a65050;fill-opacity:1"
       points="376.9,353.6 290.5,268 376.9,180.2 342.3,146.4 256,232 169.7,146.4 135.1,180.2 221.5,268 135.1,353.6 169.7,388.1 256,302.5 342.3,388.1 "
       class="st0"
       id="XMLID_5_" />
    <polygon
       transform="matrix(0.01796013,0,0,0.01796013,-0.2794867,288.15188)"
       style="fill:#e0e0d1;fill-opacity:1"
       points="342.3,363.4 376.9,329.6 290.5,244 376.9,156.2 342.3,121.6 256,207.2 169.7,121.6 135.1,156.2 221.5,244 135.1,329.6 169.7,363.4 256,277.8 "
       class="st2"
       id="XMLID_6_" />
  </g>
</svg>
